# xmcd CD database file
#
# Track frame offsets:
#	150
#	16828
#	33866
#	47111
#	65336
#	79401
#	93984
#	116113
#	127494
#	147033
#	169639
#	185360
#
# Disc length: 2632 seconds
#
# Revision: 0
# Processed by: cddbd v1.5.2PL0 Copyright (c) Steve Scherf et al.
# Submitted via: CDex 1.70beta2
#
DISCID=a10a460c
DTITLE=Delicatessen - My Baby Just Cares For Me
DYEAR=1900
DGENRE=Jazz
TTITLE0=Don't be that way
TTITLE1=Mickey
TTITLE2=He's funny that way
TTITLE3=My Melancholy Baby
TTITLE4=Be careful, it's my heart
TTITLE5=My baby just cares for me
TTITLE6=You've changed
TTITLE7=Why don't you do right
TTITLE8=How long has this be going
TTITLE9=My foolish heart
TTITLE10=Delicatessen
TTITLE11=Amores Musicais
EXTD=
EXTT0=
EXTT1=
EXTT2=
EXTT3=
EXTT4=
EXTT5=
EXTT6=
EXTT7=
EXTT8=
EXTT9=
EXTT10=
EXTT11=
PLAYORDER=
